# xmcd
#
# Track frame offsets: 
#        150
#        11744
#        23940
#        36847
#        51537
#        64606
#        77482
#        94204
#        109263
#        123340
#        137515
#        153947
#
# Disc length: 2215 seconds
#
# Revision: 0
# Processed by: cddbd v1.5.2PL0 Copyright (c) Steve Scherf et al.
# Submitted via: ExactAudioCopy v1.0b1
#
DISCID=9908a50c
DTITLE=Ike and Tina Turner - The Ike and Tina Turner Show - Vol. 1
DYEAR=1965
DGENRE=R&B
TTITLE0=Finger Poppin'
TTITLE1=Down In The Valley
TTITLE2=Good Times
TTITLE3=You Are My Sunshine
TTITLE4=Having A Good Time
TTITLE5=Twist And Shout
TTITLE6=Something's Got A Hold Of Me
TTITLE7=I Know (You Don't Want Me No More)
TTITLE8=Tight Pants
TTITLE9=My Man, He's A Lovin' Man
TTITLE10=I Can't Stop Loving You
TTITLE11=To Tell The Truth
EXTD=
EXTT0=
EXTT1=
EXTT2=
EXTT3=
EXTT4=
EXTT5=
EXTT6=
EXTT7=
EXTT8=
EXTT9=
EXTT10=
EXTT11=
PLAYORDER=
